<?xml version="1.0" encoding="utf-8"?>
<!-- Generator: Adobe Illustrator 16.0.0, SVG Export Plug-In . SVG Version: 6.00 Build 0)  -->
<!DOCTYPE svg PUBLIC "-//W3C//DTD SVG 1.1//EN" "http://www.w3.org/Graphics/SVG/1.1/DTD/svg11.dtd">
<svg version="1.1" id="Layer_1" xmlns="http://www.w3.org/2000/svg" xmlns:xlink="http://www.w3.org/1999/xlink" x="0px" y="0px"
	 width="759px" height="456px" viewBox="0 0 759 456" style="enable-background:new 0 0 759 456;" xml:space="preserve">
<style type="text/css">
<![CDATA[
	.st0{fill:#231F20;}
	.st1{fill:#F7B334;}
	.st2{fill:#C3C6C8;}
	.st3{fill:#648C1A;}
	.st4{fill:#004A97;}
]]>
</style>
<g>
	<path class="st3" d="M6,318.4c8-3.4,16.2-6.4,24.5-9.2c8.3-2.8,16.6-5.3,25.1-7.6c4.2-1.2,8.5-2.2,12.7-3.2c4.3-1,8.5-2,12.8-2.9
		c8.6-1.8,17.3-3.2,26-4.4c8.8-1.1,17.6-1.9,26.5-2.1c9-0.2,17.8,0,26.7,0.7c17.6,1.2,35,3.7,52.2,6.5c8.6,1.4,17.2,3,25.7,4.6
		c8.5,1.7,17.1,3.3,25.6,5c17,3.4,33.9,6.9,50.8,9.8c8.5,1.5,16.9,2.8,25.4,3.7c4.2,0.4,8.4,0.9,12.7,1c2.1,0.1,4.2,0.2,6.4,0.1
		c2.1,0,4.3,0,6.4,0c8.5-0.2,17.1-0.8,25.7-1.9c8.6-1.1,17.1-2.5,25.6-4.4c-8,3.5-16.4,6.2-24.8,8.4c-8.5,2.2-17.1,3.9-25.9,5.1
		c-4.4,0.6-8.8,1-13.2,1.3c-4.4,0.3-8.9,0.4-13.3,0.4c-8.9-0.1-17.7-0.7-26.4-1.5c-17.5-1.7-34.8-4.2-51.9-7
		c-8.6-1.4-17.1-2.9-25.7-4.3c-8.5-1.5-17-3-25.6-4.4c-17-2.9-34-5.5-50.9-7.4c-8.5-0.9-16.9-1.6-25.3-1.9c-8.4-0.2-16.9,0-25.4,0.5
		c-17,1-34.1,3.1-51.2,5.7C40.1,311.6,23,314.7,6,318.4"/>
	<path class="st3" d="M498.8,288.4c4.7-2.6,9.5-4.9,14.3-7.1c4.8-2.2,9.8-4.3,14.7-6.3c9.9-3.9,20-7.4,30.2-10.5
		c20.5-6.1,41.5-10.7,63.2-12.3c5.4-0.4,10.9-0.5,16.4-0.5c5.4,0.1,10.9,0.4,16.3,0.9c10.8,1,21.5,2.7,32,5.2
		c10.5,2.5,20.8,5.7,30.8,9.7c5,2,9.9,4.2,14.7,6.6c4.8,2.4,9.5,5,13.9,8c-10.3-2.8-20.5-5.1-30.8-7c-10.3-2-20.5-3.6-30.8-4.8
		c-2.6-0.3-5.1-0.6-7.7-0.8c-2.6-0.3-5.1-0.5-7.7-0.7c-5.1-0.4-10.3-0.7-15.4-0.9c-5.1-0.2-10.2-0.3-15.4-0.2
		c-5.1,0.1-10.1,0.2-15.2,0.6c-20.4,1.5-40.9,4.8-61.4,8.5C540.4,280.4,519.8,284.6,498.8,288.4"/>
	<path class="st2" d="M494,335.4l-9.6-96.1h9.8v-12.5h-10c0-1.2,0.1-48.9,0.1-54.5h10l-35.3-30l-34.7,30h9.8v54.5h-4.4h-5.4v12.5
		h9.8v0.1l-9.6,96h7l7.8-78.3c3.9,4.9,9.6,8.4,16.2,9.4v76.9h7v-76.7c1.7-0.2,3.4-0.5,5-1c3.4-0.8,6.1-2.3,8.3-4.4
		c1.3-1,2.5-2.2,3.4-3.5l7.8,77.6H494z M458.9,260.9c-10.9,0-19.2-8.6-19.2-19.2v-2.8h19.2V260.9z M458.9,226.8h-19.2v-58.7l19.2-16
		V226.8z"/>
	<path class="st1" d="M151,30.1c1.1,7.1,3,14,5.7,20.8c2.7,6.7,6.2,13.2,10.5,19.2c1.1,1.5,2.2,3,3.4,4.4c1.1,1.4,2.4,2.8,3.6,4.2
		c1.3,1.4,2.6,2.7,3.9,4c1.4,1.3,2.7,2.6,4.1,3.7c2.7,2.3,5.4,4.6,8.3,6.7c2.8,2.1,5.7,4.2,8.6,6.2c5.9,3.9,11.9,7.5,18,10.8
		c3,1.7,6.1,3.2,9.1,4.8c3,1.6,5.9,3.2,8.8,4.8c5.6,3.4,10.8,7.3,14.3,13.5c-0.3-3.5-1.5-7-3.3-10.2c-1.8-3.2-4.2-6.1-6.6-8.7
		c-5-5.2-10.6-9.6-15.9-13.8c-5.4-4.3-10.7-8.4-15.8-12.6c-5.1-4.3-10.1-8.6-14.9-13.1c-1.2-1.1-2.3-2.2-3.5-3.3
		c-1.1-1.1-2.2-2.3-3.2-3.4c-2.2-2.3-4.2-4.7-6.2-7.2c-1-1.3-2-2.5-2.9-3.8l-1.4-1.9l-1.4-2c-1.8-2.7-3.6-5.3-5.3-8.1
		c-3.4-5.5-6.6-11.3-9.5-17.4c-3-6-5.8-12.2-8.6-18.8c-0.6,3.5-0.7,7.1-0.6,10.7C150.1,23,150.5,26.6,151,30.1"/>
	<path class="st1" d="M99.1,140.9c4.2,4.7,9.1,8.9,14.6,12.3c5.4,3.5,11.4,6.2,17.6,8.1c3.1,0.9,6.3,1.7,9.5,2.2
		c3.2,0.6,6.3,0.9,9.5,1.1c12.4,0.9,24.3,0.1,36-0.4c5.8-0.3,11.6-0.5,17.3-0.3c5.7,0.2,11.4,0.8,17.2,2.9c-1.8-2.5-4.3-4.6-7-6.4
		c-2.7-1.8-5.6-3.1-8.6-4.3c-6-2.3-12.1-3.6-18.2-4.6c-12.2-1.9-24.2-2.1-35.5-2.9c-5.7-0.4-11-0.9-16.3-2
		c-5.3-1.1-10.6-2.6-15.7-4.6c-5.2-1.9-10.3-4.4-15.3-7.2c-5-2.8-10-6-14.9-9.8c1.1,2.9,2.6,5.7,4.3,8.3
		C95,136.1,97,138.6,99.1,140.9"/>
	<path class="st1" d="M494,92.8c2.3-2.8,4.4-5.7,6.2-8.8c1.8-3.1,3.5-6.3,4.7-9.6c-5.3,4.7-10.7,9-16.2,12.8
		c-5.5,3.8-11.2,7.1-17.1,9.9c-5.8,2.8-11.8,4.9-17.9,6.4c-0.8,0.2-1.5,0.3-2.3,0.5c-0.8,0.2-1.5,0.3-2.3,0.5l-5.1,0.9
		c-3.6,0.7-7.2,1.7-10.7,2.8c-14.1,4.5-27,11.9-38,21.4c-5.5,4.7-10.5,10-14.9,15.7c-2.2,2.9-4.2,5.8-6,8.9c-0.3,0.5-0.6,1-0.9,1.6
		c-8.1-7.6-17.2-13.8-27.2-18.4c1.4-1.8,2.7-3.6,3.9-5.5c3.4-5,6.5-10.1,9.6-15c6.2-9.9,12.3-19.2,19.4-27.6l1.3-1.6l1.4-1.5
		c0.4-0.5,0.9-1,1.4-1.5l1.4-1.5c2.3-2.4,4.4-4.9,6.3-7.6c1.9-2.7,3.6-5.5,5.1-8.4c1.5-2.9,2.8-5.9,3.8-9c2.1-6.1,3.2-12.5,3.4-18.7
		c0.1-3.1,0-6.3-0.4-9.4c-0.4-3.1-0.9-6.2-2-9.1c-1.4,6-3.2,11.6-5.2,17c-2.1,5.4-4.4,10.4-7.2,15.2c-1.4,2.4-2.9,4.6-4.4,6.8
		c-1.6,2.2-3.2,4.3-5,6.3c-1.8,2-3.6,3.9-5.5,5.7c-2.2,2.1-4.6,4.5-6.6,6.9c-8.4,9.7-14.4,21-18.6,32.4c-2.2,5.7-3.9,11.5-5.4,17.3
		l-1.7,6.6c-10.2-4-21-6.5-32.3-7.1c0.3-0.7,0.6-1.4,0.8-2.1c1.6-4.6,2.8-9.3,3.5-14.2c0.1-1.2,0.3-2.5,0.4-3.7l0.2-3.7
		c0-1.2,0-2.5,0-3.8c0-1.2-0.1-2.4-0.2-3.7c-0.4-4.8-1.1-9.6-2.2-14.3c-2.1-9.4-5.3-18.4-9.6-26.9c-2.2-4.2-4.6-8.3-7.3-12.3
		c-1.4-2-2.8-3.9-4.3-5.7c-1.5-1.9-3.1-3.7-5-5.3c1,9.7,2.9,18.7,4.8,27.5c1.9,8.9,3.9,17.5,5.9,26.1c1,4.3,1.9,8.6,2.7,12.9
		l0.6,3.2c0.2,1,0.4,2.1,0.6,3.1l0.5,3.2l0.4,3.2c0.5,4.3,1,8.7,1.3,13.3l0.2,3.1c-48.8,0.4-89.6,35-99.5,81
		c-4.6-1.2-9.4-1.7-14.1-1.8c-8.3-0.1-16.5,1.2-24.4,2.8c-15.8,3.5-30.7,8.7-45.3,12.5c-3.7,1-7.3,1.8-10.9,2.6
		c-3.6,0.7-7.2,1.4-10.9,1.7c-3.7,0.5-7.4,0.7-11.1,0.9c-1.9,0-3.7,0-5.6,0.1c-1.9,0-3.7-0.1-5.6-0.1c-7.5-0.2-15.1-1-22.7-2.2
		c-1.9-0.3-3.8-0.7-5.7-1c-1.9-0.4-3.8-0.7-5.7-1.1c-3.8-0.8-7.7-1.7-11.6-2.8c3.1,2.6,6.5,4.9,10,6.9c1.7,1.1,3.6,1.9,5.4,2.9
		c1.8,0.9,3.7,1.8,5.5,2.6c7.5,3.2,15.4,5.6,23.5,7.2c8.1,1.6,16.5,2.1,24.9,1.7c8.4-0.3,16.7-1.9,24.6-3.9
		c15.9-4.1,30.5-10.4,44.9-15.9c11.2-4.2,22.3-8.1,34.3-9.2c-1,5.8-1.5,11.7-1.5,17.8c0,2.1,0.1,4.2,0.2,6.2
		c0.8-0.4,1.7-0.8,2.5-1.2c6.4-3.1,12.9-6.1,19.4-9.1c2.1-42.6,37.5-76.6,80.6-76.6c22.8,0,43.9,9.4,59,25.6
		c1.4-0.3,2.8-0.5,4.1-0.8c2.3-0.4,4.6-0.7,7-1c2.4-0.2,4.9-0.4,7.4-0.4c2.7,0,5.4,0.2,8,0.4c-3.7-5.6-7.9-10.8-12.5-15.4
		c8.7-6.9,17.4-13.1,26.5-18.5c11.4-6.8,23.2-12.4,35.5-16.3c3.1-1,6.2-1.9,9.3-2.6l5-1.2c1.9-0.4,3.7-1,5.5-1.6
		c3.6-1.2,7.1-2.6,10.5-4.4c1.7-0.8,3.3-1.7,4.9-2.7c1.6-1,3.2-2,4.7-3.1C484,103.4,489.4,98.4,494,92.8"/>
	<path class="st4" d="M597.2,226.4c-6.6-4-13.2-7.7-19.9-11.4c-3.4-1.8-6.7-3.6-10.1-5.3c-3.4-1.8-6.8-3.5-10.3-5.1
		c-3.5-1.7-7-3.3-10.5-4.8c-1.8-0.8-3.6-1.6-5.6-2.3l-0.7-0.3l-0.8-0.3l-0.8-0.3c-0.3-0.1-0.7-0.2-1-0.3c-0.7-0.2-1.3-0.3-2-0.4
		c-0.6-0.1-1.2-0.2-1.8-0.3c-4.5-0.5-8.4-0.5-12.4-0.4c-4,0.1-7.8,0.3-11.7,0.6c-7.7,0.6-15.4,1.5-23,2.5c-0.8,0.1-1.6,0.2-2.4,0.3
		c0,6.2,0,12.3,0,17.4c7,2.7,14,5.3,21,8.1c8.2,3.2,16.4,6.5,24.7,9.8l24.7,10c-3.7-2.4-7.5-4.7-11.3-7.1c-3.8-2.3-7.7-4.5-11.5-6.7
		c-7.7-4.4-15.5-8.7-23.4-12.8c-3.6-1.9-7.3-3.7-10.9-5.6c4.4-0.4,8.9-0.7,13.3-1c3.7-0.2,7.4-0.5,11.1-0.6c1.8-0.1,3.6-0.1,5.4-0.1
		c1.8,0,3.5,0,5,0.2c0.4,0,0.7,0.1,1,0.1c0.3,0,0.6,0.1,0.8,0.1c0.1,0,0.2,0,0.4,0.1l0.6,0.2l0.6,0.2l0.6,0.2
		c1.6,0.5,3.4,1.2,5.1,1.8c3.5,1.3,7,2.6,10.5,3.9l10.6,4c3.5,1.3,7.1,2.6,10.7,3.9c7.2,2.6,14.3,5.1,21.6,7.5
		c7.3,2.4,14.6,4.7,22,6.7C610.3,234.4,603.8,230.4,597.2,226.4"/>
	<path class="st4" d="M434,184.6c-8.3-2.9-16.7-5.4-25.4-7.6c-4.5-1.1-9-2-13.6-2.7c-4.6-0.7-9.4-1.2-14.3-1.2c-2.5,0-5,0.2-7.4,0.4
		c-2.4,0.3-4.7,0.6-7,1c-4.6,0.8-9.1,1.7-13.5,2.8c-17.7,4.4-34.6,10.1-51.4,16.2c-8.4,3.1-16.7,6.2-25,9.6
		c-8.3,3.3-16.5,6.7-24.7,10.2c-16.4,7-32.5,14.4-48.6,22.1c-8,3.9-16,7.8-23.9,11.8l-11.8,6.1c-3.9,2.1-7.9,4.2-11.7,6.4
		c33.7-11.5,67-23.7,100.3-35.5c16.7-5.9,33.3-11.8,50-17.3c8.4-2.7,16.7-5.5,25.1-8c8.4-2.5,16.8-5,25.2-7c4.2-1,8.4-1.9,12.5-2.7
		c2.1-0.4,4.1-0.7,6.1-0.9c2-0.2,3.9-0.4,5.9-0.4c7.9-0.1,16.3,1.2,24.7,3c9.5,2,19.1,4.6,28.6,7.6V184.6z"/>
	<path class="st0" d="M152.2,397.5h-11.3l-1.6-10.1c-1.5-1.5-3.4-2.7-5.6-3.5c-2.3-0.9-4.9-1.3-8-1.3c-6.6,0-11.7,2.4-15.2,7.2
		c-3.6,4.8-5.3,11-5.3,18.7v2.7c0,7.7,1.8,14,5.3,18.8c3.5,4.8,8.5,7.2,15,7.2c3,0,5.7-0.4,8.2-1.3c2.5-0.9,4.4-2,5.7-3.5l1.6-10.1
		h11.3v15c-3.1,3.5-6.9,6.4-11.7,8.4c-4.7,2.1-10,3.1-15.9,3.1c-10.2,0-18.5-3.5-25-10.6c-6.5-7-9.7-16.1-9.7-27.1v-2.5
		c0-11,3.2-20,9.7-27.1c6.4-7.1,14.8-10.6,25-10.6c5.9,0,11.1,1.1,15.9,3.2c4.7,2.1,8.6,4.9,11.7,8.4V397.5z"/>
	<polygon class="st0" points="157.9,375.7 157.9,366.6 181.2,366.6 181.2,437 188.5,438.6 188.5,447.7 158.7,447.7 158.7,438.6 
		166,437 166,377.3 	"/>
	<path class="st0" d="M229.3,447.7c-0.4-0.9-0.8-1.9-1.1-2.9c-0.3-1-0.6-2-0.7-3c-1.8,2.1-4,3.8-6.6,5s-5.5,1.9-8.9,1.9
		c-5.5,0-9.9-1.5-13.1-4.5c-3.2-3-4.9-7.1-4.9-12.2c0-5.3,2.1-9.3,6.3-12.2c4.2-2.9,10.4-4.3,18.6-4.3h7.7V410
		c0-2.7-0.8-4.8-2.3-6.3c-1.6-1.5-3.9-2.2-6.9-2.2c-1.7,0-3.3,0.2-4.6,0.6c-1.4,0.4-2.4,0.9-3.3,1.4l-1,6h-11.4l0.1-12.5
		c2.8-1.9,6-3.4,9.5-4.7c3.6-1.3,7.5-1.9,11.7-1.9c7,0,12.6,1.7,17,5.1c4.4,3.4,6.5,8.3,6.5,14.6v23.2c0,0.9,0,1.7,0,2.4
		c0,0.8,0.1,1.5,0.2,2.2l4.6,0.6v9.1H229.3z M216.1,437.6c2.3,0,4.4-0.5,6.2-1.5c1.9-1,3.3-2.2,4.4-3.7v-8.6H219
		c-3.2,0-5.7,0.8-7.3,2.3c-1.7,1.5-2.5,3.3-2.5,5.4c0,1.9,0.6,3.4,1.8,4.5C212.2,437,213.9,437.6,216.1,437.6"/>
	<path class="st0" d="M253.1,438.6l7.3-1.6v-34.9l-8.1-1.6v-9.2h22.2l0.7,8.2c1.3-2.9,3-5.2,5.1-6.8c2.1-1.6,4.5-2.4,7.2-2.4
		c0.8,0,1.6,0.1,2.5,0.2c0.9,0.1,1.6,0.3,2.2,0.4l-1.6,13.8l-6.2-0.2c-2.2,0-4.1,0.4-5.5,1.3c-1.5,0.9-2.6,2.1-3.3,3.7V437l7.3,1.6
		v9.1h-29.7V438.6z"/>
	<path class="st0" d="M322.7,448.8c-8.1,0-14.6-2.6-19.4-7.8c-4.9-5.2-7.3-11.8-7.3-19.8v-2.1c0-8.4,2.3-15.2,6.9-20.6
		c4.6-5.4,10.8-8.1,18.5-8.1c7.6,0,13.5,2.3,17.7,6.9c4.2,4.6,6.3,10.8,6.3,18.6v8.3h-33.6l-0.1,0.3c0.3,3.7,1.5,6.8,3.7,9.2
		c2.2,2.4,5.2,3.6,9,3.6c3.4,0,6.2-0.3,8.4-1c2.2-0.7,4.6-1.7,7.3-3.2l4.1,9.4c-2.3,1.8-5.3,3.4-9,4.6
		C331.4,448.2,327.2,448.8,322.7,448.8 M321.3,402.1c-2.8,0-5,1.1-6.7,3.2c-1.6,2.1-2.6,5-3,8.5l0.2,0.3h18.6v-1.4
		c0-3.2-0.8-5.8-2.3-7.7C326.7,403.1,324.4,402.1,321.3,402.1"/>
	<path class="st0" d="M398.4,410.8h-10.2l-1.6-7c-1-0.8-2.3-1.5-3.9-2.1c-1.6-0.6-3.3-0.8-5.2-0.8c-2.7,0-4.8,0.6-6.3,1.8
		c-1.6,1.2-2.3,2.7-2.3,4.5c0,1.7,0.7,3.1,2.2,4.2c1.5,1.1,4.5,2.1,8.9,3c7,1.4,12.1,3.4,15.5,6.1c3.4,2.7,5,6.4,5,11.1
		c0,5.1-2.2,9.2-6.5,12.4c-4.3,3.2-10.1,4.8-17.2,4.8c-4.3,0-8.3-0.6-11.9-1.9c-3.6-1.3-6.8-3.1-9.6-5.4l-0.2-12.6h10.6l2.1,7.3
		c0.9,0.8,2.1,1.3,3.7,1.7c1.6,0.4,3.2,0.5,4.9,0.5c3.1,0,5.4-0.6,7-1.7c1.6-1.1,2.4-2.6,2.4-4.5c0-1.7-0.8-3.1-2.4-4.3
		c-1.6-1.2-4.6-2.3-9-3.2c-6.6-1.4-11.6-3.4-15-6c-3.4-2.7-5.1-6.3-5.1-10.8c0-4.7,1.9-8.8,5.8-12.2c3.9-3.4,9.4-5.1,16.6-5.1
		c4.4,0,8.5,0.6,12.4,1.8c3.9,1.2,7,2.7,9.2,4.5L398.4,410.8z"/>
	<path class="st0" d="M406.5,438.6l7.3-1.6v-59.7l-8.1-1.6v-9.2h23.2v32c1.8-2.6,3.9-4.6,6.5-6.1c2.6-1.4,5.4-2.2,8.5-2.2
		c5.9,0,10.5,1.9,13.9,5.8c3.3,3.9,5,9.9,5,18.1V437l7.3,1.6v9.1h-29v-9.1l6.6-1.6v-22.8c0-4.4-0.8-7.5-2.3-9.3
		c-1.5-1.8-3.8-2.7-6.9-2.7c-2.1,0-4,0.4-5.5,1.1c-1.6,0.8-2.9,1.8-4,3.2V437l6.6,1.6v9.1h-29V438.6z"/>
	<path class="st0" d="M474.5,419c0-8.4,2.3-15.3,7-20.6c4.7-5.4,11.2-8,19.5-8c8.3,0,14.8,2.7,19.5,8c4.7,5.3,7,12.2,7,20.6v1.1
		c0,8.5-2.3,15.3-7,20.7c-4.7,5.3-11.2,8-19.4,8c-8.4,0-14.9-2.7-19.6-8c-4.7-5.3-7-12.2-7-20.7V419z M489.6,420.1
		c0,5.1,0.9,9.2,2.7,12.3c1.8,3.1,4.7,4.7,8.7,4.7c3.9,0,6.8-1.6,8.6-4.7c1.8-3.1,2.7-7.2,2.7-12.3V419c0-5-0.9-9.1-2.8-12.2
		c-1.8-3.2-4.7-4.7-8.7-4.7s-6.8,1.6-8.6,4.7c-1.8,3.2-2.7,7.2-2.7,12.2V420.1z"/>
	<polygon class="st0" points="531.5,375.7 531.5,366.6 554.8,366.6 554.8,437 562.1,438.6 562.1,447.7 532.3,447.7 532.3,438.6 
		539.6,437 539.6,377.3 	"/>
	<path class="st0" d="M565.3,400.6v-9.2h22.2l0.6,7.4c1.8-2.7,4.1-4.8,6.8-6.3c2.7-1.5,5.9-2.2,9.4-2.2c3.6,0,6.7,0.8,9.3,2.4
		c2.6,1.6,4.5,4,5.8,7.2c1.7-3,4-5.4,6.8-7.1c2.8-1.7,6-2.5,9.8-2.5c5.5,0,9.9,1.9,13.1,5.7c3.2,3.8,4.8,9.7,4.8,17.5V437l7.3,1.6
		v9.1h-29.1v-9.1l6.6-1.6v-23.4c0-4.3-0.7-7.2-2.1-8.9c-1.4-1.7-3.4-2.5-6.2-2.5c-2.1,0-4,0.5-5.6,1.4c-1.6,1-2.8,2.3-3.8,4
		c0,0.7,0,1.2,0.1,1.7s0.1,0.9,0.1,1.4V437l6.1,1.6v9.1h-27.4v-9.1l6.1-1.6v-23.4c0-4.2-0.7-7.1-2.1-8.8c-1.4-1.7-3.5-2.6-6.2-2.6
		c-2,0-3.8,0.4-5.4,1.2c-1.5,0.8-2.8,1.9-3.8,3.3V437l6.6,1.6v9.1h-29v-9.1l7.3-1.6v-34.9L565.3,400.6z"/>
</g>
</svg>
